<svg width="40" height="40" viewBox="0 0 40 40" fill="none" xmlns="http://www.w3.org/2000/svg">
<g clip-path="url(#clip0_542_3789)">
<path d="M9.83416 21.9029C9.83416 21.9029 10.7834 25.0392 13.9575 27.7867C13.9575 27.7867 17.8965 19.864 27.6633 20.0035C27.6633 20.0035 19.8782 15.0465 9.83416 21.9029Z" fill="white"/>
<path d="M33.7018 8.35457C32.9515 7.14895 31.9631 6.09095 30.8246 5.2544C27.6261 2.90221 23.431 1.79501 19.4904 2.03121C16.1907 2.22969 13.0053 3.50748 10.4771 5.65135C7.98811 7.7657 6.19557 10.6625 5.4306 13.8496C5.14353 15.0437 5 16.2723 5 17.5025C5 26.0616 11.8994 33.0001 20.4103 33.0001C20.4348 33.0001 20.1656 32.7704 20.1363 32.7474C19.5736 32.3324 18.9994 31.9322 18.44 31.5107C17.5478 30.8398 16.68 30.1377 15.8466 29.3947C14.863 28.5155 13.9268 27.5805 13.0803 26.5652C12.2175 25.5318 11.4411 24.4131 10.862 23.1911C10.4461 22.3135 10.1786 21.4097 10.0008 20.4567C9.81001 19.4299 9.89972 18.3391 10.1607 17.2827C10.4233 16.2214 10.8588 15.1962 11.3579 14.3088C13.9235 9.74062 19.815 7.2408 24.793 8.27091L22.0838 10.3918C29.7563 8.50219 36 15.7556 36 15.7556C36 13.6002 35.2269 11.4957 34.3494 9.56018C34.1602 9.14683 33.9432 8.74332 33.7018 8.35457Z" fill="white"/>
</g>
<defs>
<clipPath id="clip0_542_3789">
<rect width="31" height="31" fill="white" transform="translate(5 2)"/>
</clipPath>
</defs>
</svg>
