<svg width="60" height="60" viewBox="0 0 60 60" fill="none" xmlns="http://www.w3.org/2000/svg">
<g clip-path="url(#clip0)">
<path d="M35.2148 7.86987C34.9441 7.86987 34.4568 7.49083 34.0236 7.43668C33.1572 7.27424 32.3991 7.54498 31.5869 7.54498C30.6664 7.54498 30.2332 7.65328 30.1249 7.70742C30.0166 7.76157 29.8541 7.81572 29.6376 7.81572C29.2044 7.81572 28.5004 7.65328 27.9589 7.49083C27.6341 7.38253 27.3092 7.32838 27.1467 7.32838C26.7677 7.27424 25.9013 7.54498 25.3598 7.65328C25.0349 7.76157 24.8183 7.81572 24.71 7.81572H24.6559C24.2227 7.81572 23.952 7.38253 23.8978 7.27424L23.7354 7.16594L24.3851 5.81223L24.4393 5.75808C25.5764 5.1083 28.2297 5 29.7458 5H30.0707C30.9913 5 34.0777 5.05415 35.3773 5.75808L35.4314 5.81223L36.0271 7.11179C36.0812 7.16594 36.1354 7.32838 36.0271 7.54498C35.8646 7.81572 35.4856 7.86987 35.2148 7.86987V7.86987Z" fill="#6C6D6F"/>
<path d="M46.3153 11.7144C44.9616 9.27775 42.7956 9.00701 40.7921 8.73627C38.7345 8.46552 34.5651 7.32841 34.2943 7.22011C32.6157 6.67862 31.262 7.32841 29.8541 7.32841C28.3921 7.32841 27.0384 6.67862 25.414 7.22011C25.1432 7.32841 20.9196 8.41137 18.9162 8.73627C16.8585 9.00701 14.7467 9.27775 13.393 11.7144C11.931 14.1511 5.59563 24.9267 5.59563 24.9267L13.9886 29.1502L17.2917 24.5476C17.2917 24.5476 18.1581 31.966 18.1581 35.7564C18.1581 39.5467 17.1293 48.9144 17.7249 52.3799C17.7249 52.3799 18.3205 54.0585 29.2585 54.0585H30.4498C41.3878 54.0585 41.9293 52.3799 41.9293 52.3799C42.5249 48.9144 41.6044 39.655 41.6044 35.8105C41.6044 31.966 42.4166 24.5476 42.4166 24.5476L45.6655 29.0961L54.0044 24.8725C54.0044 24.9267 47.669 14.1511 46.3153 11.7144V11.7144Z" fill="#6C6D6F"/>
<path opacity="0.4" d="M30.4498 51.2427H29.2585C18.6454 51.2427 17.5624 49.6724 17.4541 49.4017L17.9956 49.1851C18.0498 49.2392 19.0244 50.7012 29.2585 50.7012H30.4498C40.6297 50.7012 41.6044 49.2934 41.6585 49.2392L42.2 49.4558C42.0917 49.6724 41.0629 51.2427 30.4498 51.2427V51.2427Z" fill="black"/>
<path opacity="0.5" d="M17.4541 24.5476C17.4541 24.5476 16.5336 15.6131 15.2882 14.3677M42.2541 24.6017C42.2541 24.6017 43.1747 15.6672 44.4201 14.4218L42.2541 24.6017Z" stroke="black" stroke-width="0.854463" stroke-miterlimit="10" stroke-linecap="round" stroke-linejoin="round"/>
<path d="M46.3153 11.7144C44.9616 9.27775 42.7956 9.00701 40.7921 8.73627C38.7345 8.46552 34.5651 7.32841 34.2943 7.22011C32.6157 6.67862 31.262 7.32841 29.8541 7.32841C28.3921 7.32841 27.0384 6.67862 25.414 7.22011C25.1432 7.32841 20.9196 8.41137 18.9162 8.73627C16.8585 9.00701 14.7467 9.27775 13.393 11.7144C11.931 14.1511 5.59563 24.9267 5.59563 24.9267L13.9886 29.1502L17.2917 24.5476C17.2917 24.5476 18.1581 31.966 18.1581 35.7564C18.1581 39.5467 17.1293 48.9144 17.7249 52.3799C17.7249 52.3799 18.3205 54.0585 29.2585 54.0585H30.4498C41.3878 54.0585 41.9293 52.3799 41.9293 52.3799C42.5249 48.9144 41.6044 39.655 41.6044 35.8105C41.6044 31.966 42.4166 24.5476 42.4166 24.5476L45.6655 29.0961L54.0044 24.8725C54.0044 24.9267 47.669 14.1511 46.3153 11.7144V11.7144Z" stroke="#6C6D6F" stroke-width="1.16852" stroke-miterlimit="10" stroke-linejoin="round"/>
</g>
<rect x="0.5" y="0.5" width="59" height="59" rx="29.5" stroke="white" stroke-opacity="0.1"/>
<defs>
<clipPath id="clip0">
<rect width="49.6" height="49.6541" fill="white" transform="translate(5 5)"/>
</clipPath>
</defs>
</svg>
